<svg version="1.1" id="Layer_1" xmlns="http://www.w3.org/2000/svg" xmlns:xlink="http://www.w3.org/1999/xlink" x="0px" y="0px"
	 width="100%" viewBox="0 0 2000 2000" enable-background="new 0 0 2000 2000" xml:space="preserve">
<path fill="#092C2D" opacity="1.000000" stroke="none" 
	d="
M920.000000,2001.000000 
	C613.333313,2001.000000 307.166656,2001.000000 1.000000,2001.000000 
	C1.000000,1334.333374 1.000000,667.666687 1.000000,1.000000 
	C667.666687,1.000000 1334.333374,1.000000 2001.000000,1.000000 
	C2001.000000,667.666687 2001.000000,1334.333374 2001.000000,2001.000000 
	C1640.833374,2001.000000 1280.666626,2001.000000 920.000000,2001.000000 
M1271.845459,948.960999 
	C1271.625000,948.734741 1271.404541,948.508423 1271.586060,947.746826 
	C1279.707642,937.908508 1287.766357,928.016846 1296.023804,918.294067 
	C1297.160522,916.955505 1299.377808,915.547791 1300.935669,915.708984 
	C1314.187134,917.079407 1324.306763,911.952332 1331.486938,901.110535 
	C1333.206787,898.513611 1333.375488,894.889404 1334.257690,891.737671 
	C1330.748169,891.922302 1326.875122,891.224548 1323.809814,892.487244 
	C1318.511963,894.669800 1313.715576,898.069275 1308.205200,900.330261 
	C1308.034912,900.122986 1307.864502,899.915710 1307.880615,899.041687 
	C1313.051758,887.351013 1318.127808,875.616272 1323.495239,864.016479 
	C1324.312256,862.250793 1326.239624,860.507812 1328.063232,859.777100 
	C1341.814575,854.266541 1350.856812,844.538269 1355.066406,830.370239 
	C1355.493164,828.933716 1355.144287,827.266663 1355.155396,825.706604 
	C1353.444214,825.853577 1351.302734,825.397461 1350.099609,826.256226 
	C1345.818237,829.312378 1341.549194,832.512329 1337.865112,836.240601 
	C1334.575073,839.570190 1332.064819,843.670166 1329.210449,847.430237 
	C1331.761841,831.036865 1332.016235,814.999573 1329.521729,798.900269 
	C1329.378906,797.979248 1329.976440,796.626892 1330.681763,795.939514 
	C1338.674072,788.149231 1341.209839,778.238403 1340.741455,767.673096 
	C1340.538940,763.104065 1338.302002,758.516663 1336.406128,754.193298 
	C1335.790283,752.788879 1333.299805,751.454529 1331.710083,751.503235 
	C1330.712524,751.533752 1329.338501,754.088745 1328.945557,755.708191 
	C1328.286621,758.424194 1328.259644,761.295898 1327.995483,764.104797 
	C1327.484131,769.540283 1326.992920,774.977722 1326.469238,780.675232 
	C1320.797607,768.290588 1315.334473,756.574341 1310.153931,744.734436 
	C1309.609009,743.489197 1310.358154,741.307922 1311.135376,739.910400 
	C1320.334961,723.371338 1319.149292,707.076721 1310.122437,690.969604 
	C1309.248901,689.410828 1307.687500,688.237427 1305.666992,686.037842 
	C1300.379028,702.514893 1303.238770,717.949524 1303.985229,733.477234 
	C1301.979370,731.556824 1300.421631,729.514221 1299.004272,727.378357 
	C1290.927002,715.204285 1280.094849,705.084290 1273.302368,691.852478 
	C1271.229492,687.814392 1266.300171,684.769165 1262.030762,682.476685 
	C1258.380493,680.516785 1253.802124,680.285645 1248.538696,679.028015 
	C1252.410889,692.660767 1258.759399,701.980164 1270.351929,707.337891 
	C1274.667847,709.332581 1279.869385,711.055054 1282.602295,714.527039 
	C1291.328857,725.613525 1299.102051,737.452026 1307.191284,749.036499 
	C1307.864868,750.001160 1308.147339,751.239136 1309.056152,753.414124 
	C1306.791382,752.033997 1305.612793,751.193542 1304.333130,750.556274 
	C1297.205322,747.006531 1290.075073,743.459473 1282.879272,740.051758 
	C1282.046753,739.657471 1280.803345,740.130432 1279.750610,740.201355 
	C1279.812500,741.119751 1279.538330,742.268188 1279.986084,742.922424 
	C1288.187500,754.906006 1297.961670,764.895081 1313.186035,767.122803 
	C1315.952637,767.527588 1317.268555,768.479126 1318.026001,770.976929 
	C1320.195679,778.131470 1322.904297,785.152771 1324.592407,792.414368 
	C1326.207764,799.362915 1326.808350,806.547424 1327.854980,813.628174 
	C1327.374512,813.750244 1326.894165,813.872314 1326.413818,813.994385 
	C1325.668945,812.609253 1325.070190,811.118042 1324.154663,809.856689 
	C1319.285889,803.148376 1314.380981,796.464661 1309.356689,789.872925 
	C1308.791870,789.131958 1307.396851,789.023743 1306.386963,788.622131 
	C1306.021729,789.624146 1305.190674,790.714233 1305.360962,791.615051 
	C1307.979980,805.474487 1312.738281,818.176514 1324.386719,827.315674 
	C1325.845459,828.460083 1327.180176,831.324341 1326.804932,832.994629 
	C1324.078491,845.129517 1320.904297,857.163940 1317.826782,869.218628 
	C1317.756836,869.492615 1317.157837,869.631531 1316.437378,870.044434 
	C1317.075439,858.278503 1316.754761,847.073730 1307.666626,838.282104 
	C1303.148193,853.126953 1301.007812,867.868713 1308.533081,882.256714 
	C1310.131836,885.313477 1310.408325,887.616211 1308.590210,890.484131 
	C1301.558838,901.574097 1294.649170,912.741028 1287.647583,923.849915 
	C1287.051025,924.796326 1286.110962,925.526245 1284.848145,926.870056 
	C1285.961182,920.243469 1287.072266,914.553894 1287.788940,908.815063 
	C1288.011841,907.030518 1287.166504,905.112549 1286.810181,903.255737 
	C1284.948975,904.391235 1282.694214,905.182983 1281.326172,906.749329 
	C1279.615356,908.707886 1278.062866,911.160828 1277.441406,913.649780 
	C1275.361084,921.983215 1273.765503,930.436646 1271.888306,938.822632 
	C1271.481934,940.638428 1271.204224,943.004578 1269.966675,944.027466 
	C1262.287964,950.373535 1254.352295,956.408875 1245.862061,962.003967 
	C1245.647583,961.824219 1245.432983,961.644531 1245.557007,960.847656 
	C1249.871582,953.919739 1253.198486,946.683533 1253.222412,937.196472 
	C1251.261475,938.165039 1249.975098,938.466553 1249.160522,939.255188 
	C1242.274170,945.922058 1235.626709,953.224915 1234.021973,962.781555 
	C1232.817749,969.953552 1228.870117,972.370850 1223.054688,974.056580 
	C1220.345825,974.841797 1217.697144,975.837036 1215.029175,976.759705 
	C1213.655640,977.234741 1212.299561,977.759766 1210.935547,978.262207 
	C1211.077759,978.686707 1211.219971,979.111206 1211.362183,979.535645 
	C1213.588989,979.184692 1215.850952,978.980347 1218.036987,978.458679 
	C1231.115356,975.337830 1243.067871,969.756897 1254.209717,962.229553 
	C1256.062378,960.977966 1259.139404,960.422791 1261.313477,960.946167 
	C1274.042358,964.010193 1285.383789,961.213318 1295.641724,953.499207 
	C1297.184326,952.339172 1298.010254,950.226135 1299.167725,948.553955 
	C1297.343872,948.031921 1295.467651,946.930542 1293.705200,947.089539 
	C1286.618774,947.729065 1279.567261,948.758423 1271.845459,948.960999 
M636.087524,788.993164 
	C636.285522,789.176758 636.483521,789.360291 636.287476,790.095947 
	C634.492310,792.699036 632.114929,795.080872 631.024109,797.951599 
	C628.805359,803.791077 627.205505,809.873779 625.556885,815.912537 
	C625.324646,816.763123 626.034729,818.147888 626.740662,818.852539 
	C627.059143,819.170410 628.677979,818.688965 629.301147,818.123291 
	C640.195618,808.233459 649.606812,797.455811 651.686462,782.009338 
	C651.957703,779.994812 653.664734,777.301575 655.425110,776.499634 
	C667.817688,770.854370 680.391663,765.606018 692.933655,760.292053 
	C693.825684,759.914062 694.924194,760.023438 696.948303,759.786743 
	C690.372681,765.712891 683.616577,770.150940 681.138062,778.669250 
	C684.504211,778.631592 687.778503,778.413696 690.567688,777.136353 
	C699.344971,773.117188 706.820251,767.206299 712.330688,759.273499 
	C714.961975,755.485474 718.008606,753.579468 722.464844,753.391113 
	C731.429810,753.012085 740.390808,752.538391 749.353455,752.103760 
	C749.423401,752.623535 749.493408,753.143372 749.563354,753.663147 
	C741.641357,757.462463 733.334778,760.779846 728.403259,769.647766 
	C730.167969,769.959229 731.124512,770.374817 732.000061,770.244812 
	C742.012329,768.758667 751.868530,766.202942 759.275574,759.072388 
	C763.612122,754.897766 767.489014,754.274475 772.563782,756.218628 
	C773.956909,756.752258 775.406067,757.284607 776.871887,757.457214 
	C781.665833,758.021790 782.744629,760.635803 782.731140,765.283569 
	C782.561951,823.948120 782.632935,882.613403 782.591919,941.278442 
	C782.589050,945.437317 782.515564,949.643738 781.914734,953.745972 
	C779.816895,968.067993 775.819702,981.259338 760.193665,986.736084 
	C759.982056,986.810303 759.891418,987.229980 759.747925,987.499146 
	C788.491699,987.499146 817.235474,987.499146 845.979248,987.499146 
	C833.623657,982.509033 828.416016,972.386597 826.064697,960.426819 
	C824.884583,954.424683 824.154236,948.227356 824.147278,942.117188 
	C824.032654,841.286804 824.065735,740.456116 824.065674,639.625549 
	C824.065674,637.826111 824.065613,636.026672 824.065613,633.974915 
	C826.630249,633.643921 828.744080,633.259583 830.874146,633.113342 
	C852.699707,631.614746 874.171936,627.949036 895.298035,622.346985 
	C936.295654,611.475708 977.226685,600.352661 1018.239441,589.539368 
	C1059.936768,578.545532 1102.131348,574.674438 1144.911621,582.039795 
	C1168.032471,586.020508 1189.074829,594.616516 1205.819458,611.724365 
	C1210.332153,616.334961 1214.319092,621.460266 1218.635010,626.450623 
	C1219.875244,625.959045 1221.115723,625.510681 1222.316162,624.972778 
	C1222.886597,624.717224 1223.380493,624.290955 1224.226685,623.732239 
	C1210.436646,607.127441 1194.944214,592.964355 1176.033081,582.888062 
	C1148.086182,567.997559 1117.832397,562.353943 1086.548096,561.354980 
	C1047.445435,560.106262 1009.778076,568.168274 972.649475,579.477600 
	C937.488647,590.187622 902.395569,601.126587 867.148865,611.546143 
	C826.380737,623.597961 784.956299,629.761108 742.348999,624.000244 
	C717.230530,620.604004 692.862610,614.839539 671.267761,600.911316 
	C661.240417,594.443848 651.837280,587.008789 642.172058,580.027466 
	C639.902771,583.229553 640.307251,586.239929 644.065918,588.873169 
	C646.098022,590.296814 647.756165,592.241638 649.701355,593.803894 
	C678.170044,616.669067 711.799500,626.522339 747.061646,631.925720 
	C758.699219,633.708923 770.521118,634.289001 782.233032,635.416748 
	C782.233032,675.642700 782.233032,715.705200 782.233032,756.579773 
	C768.030701,750.285889 753.633362,748.342102 738.852356,748.452576 
	C737.719666,748.461060 736.362854,747.049805 735.468628,745.994690 
	C726.490234,735.399231 715.019958,730.939148 701.312988,732.067749 
	C699.856201,732.187683 698.470276,733.166992 697.051514,733.747681 
	C697.976624,735.008789 698.774109,736.396362 699.863403,737.494629 
	C700.905151,738.544983 702.166321,739.451904 703.476196,740.149414 
	C709.699951,743.463928 715.973328,746.685303 721.749512,749.690308 
	C715.659424,751.053589 708.935913,752.288818 702.372498,754.102966 
	C695.648499,755.961365 689.015930,758.211060 682.475281,760.644287 
	C679.591553,761.716980 677.856995,761.350464 675.583252,759.167542 
	C665.927917,749.897644 648.598694,749.152771 637.630554,757.049316 
	C634.774292,759.105652 635.293274,761.131775 637.583130,762.534302 
	C640.209167,764.142639 643.229614,765.499939 646.239685,766.003052 
	C651.739380,766.922241 657.357544,767.132690 663.569702,767.697205 
	C662.606750,768.503540 662.183716,768.962280 661.670715,769.271912 
	C650.286987,776.144226 638.938843,783.078613 627.442261,789.757141 
	C626.045471,790.568542 623.745728,790.385864 622.021912,789.985657 
	C607.422607,786.596130 594.292236,789.416138 582.756958,799.046936 
	C581.758057,799.880920 580.572571,801.714539 580.882324,802.579529 
	C581.259766,803.633850 583.150513,804.829346 584.348816,804.790649 
	C590.108826,804.604431 595.921692,804.411072 601.586426,803.454346 
	C605.881165,802.729065 609.981384,800.851990 614.710999,799.310486 
	C614.163513,800.452393 614.056396,801.003113 613.725159,801.319153 
	C602.402893,812.124756 593.229980,824.480835 586.488831,838.640686 
	C586.022644,839.619934 584.680481,840.623718 583.608398,840.805359 
	C571.215149,842.904358 563.002258,850.607178 557.344177,861.100586 
	C555.493103,864.533569 555.043518,869.052368 555.061584,873.069580 
	C555.079468,877.044556 557.609863,878.001892 560.760193,875.588318 
	C562.836304,873.997681 564.500793,871.838135 566.225342,869.826843 
	C570.061401,865.352844 573.819458,860.811890 577.609314,856.298279 
	C578.493591,857.630432 578.541565,858.392883 578.392883,859.114990 
	C576.115479,870.177917 573.679871,881.210876 571.605469,892.311401 
	C571.062866,895.214844 570.029297,896.728149 567.265259,898.048889 
	C550.437195,906.089844 541.985474,920.018616 540.123474,938.217590 
	C539.942810,939.982727 540.968384,941.871399 541.433960,943.702637 
	C542.909912,942.822998 544.614441,942.182495 545.825134,941.025391 
	C554.615112,932.624146 560.745850,922.339600 566.316101,911.672180 
	C567.263000,909.858826 568.310242,908.097961 569.311157,906.312805 
	C569.840210,906.416992 570.369324,906.521118 570.898376,906.625305 
	C570.898376,914.725159 570.913391,922.825134 570.894348,930.924927 
	C570.874451,939.378296 571.081421,947.842896 570.713013,956.281799 
	C570.318054,965.328613 573.102661,972.992249 579.412903,979.365112 
	C580.665405,980.630066 582.421936,981.395935 584.241150,982.584900 
	C588.554504,969.425476 588.264526,957.603333 581.230286,946.270935 
	C579.158630,942.933411 576.510071,939.282043 576.242676,935.619873 
	C575.370850,923.679871 575.363708,911.669373 575.275940,899.684082 
	C575.249512,896.078430 576.045410,892.466736 576.464661,888.857849 
	C581.334106,898.668945 585.548279,908.227356 592.790466,916.411438 
	C593.777832,915.306580 594.183105,914.983582 594.408752,914.564026 
	C594.635010,914.143433 594.796326,913.625244 594.791260,913.151978 
	C594.632996,898.491272 592.266418,884.624268 581.100281,873.735596 
	C580.066711,872.727661 579.311279,870.558350 579.614136,869.191284 
	C582.656189,855.457336 587.677734,842.461304 594.884094,830.349182 
	C595.408752,829.467285 596.207581,828.748596 597.864563,826.787354 
	C595.753540,839.220886 595.106873,850.166077 598.327881,860.842468 
	C599.398682,860.842468 599.811401,860.968872 600.037964,860.817261 
	C600.571777,860.459778 601.208191,860.062012 601.469788,859.519836 
	C607.546265,846.927307 611.116333,833.876953 606.955566,819.974182 
	C605.827698,816.205505 606.239136,813.723999 609.093384,811.275574 
	C617.925232,803.699768 626.699524,796.056763 636.087524,788.993164 
M1192.412720,948.915588 
	C1207.239014,935.726624 1219.688110,920.615601 1228.755615,902.920776 
	C1252.051514,857.458984 1256.854492,810.343994 1239.907837,761.807190 
	C1216.313599,694.230835 1151.920288,647.470276 1078.828735,648.855652 
	C1037.678833,649.635620 996.502136,648.996399 955.337463,648.996521 
	C953.625366,648.996521 951.913269,648.996521 950.201172,648.996521 
	C963.421143,654.436646 968.628052,665.198975 971.041504,677.836914 
	C972.005554,682.885193 972.671814,688.079529 972.677856,693.208252 
	C972.776489,776.704102 972.763733,860.200073 972.701721,943.695984 
	C972.698425,948.179321 972.372437,952.718445 971.624695,957.134705 
	C969.338501,970.638184 964.703186,982.620361 950.100220,987.841064 
	C950.851746,987.841064 951.603210,987.841064 952.354736,987.841003 
	C997.685852,987.837952 1043.020142,988.128784 1088.346069,987.639893 
	C1100.745728,987.506165 1113.320679,985.987671 1125.464233,983.435242 
	C1150.556763,978.161133 1172.317017,965.772156 1192.412720,948.915588 
M1150.941895,1255.185913 
	C1150.943115,1252.022583 1151.232178,1248.828003 1150.893066,1245.701660 
	C1149.760254,1235.261597 1145.578491,1226.715332 1134.961792,1223.001343 
	C1126.407227,1220.008789 1117.631470,1220.932251 1108.769165,1222.010986 
	C1108.769165,1241.493408 1108.769165,1260.581299 1108.769165,1279.623169 
	C1133.817383,1284.277710 1147.886353,1276.340332 1150.941895,1255.185913 
M883.218933,1253.318970 
	C891.996765,1249.339966 895.376770,1243.453247 894.147827,1234.285034 
	C893.163330,1226.940430 887.973877,1222.351318 878.650818,1221.453613 
	C874.225525,1221.027588 869.691956,1221.880615 865.212280,1221.816040 
	C861.532837,1221.762939 860.388428,1223.159790 860.451416,1226.849609 
	C860.664490,1239.340698 860.532288,1251.837524 860.532104,1264.332153 
	C860.532043,1269.446533 860.532043,1274.561035 860.532043,1279.812744 
	C863.082275,1279.812744 865.040710,1279.812744 867.554810,1279.812744 
	C867.554810,1271.201294 867.554810,1262.772583 867.554810,1254.004639 
	C872.367004,1254.169922 875.972961,1254.641602 878.367859,1259.181152 
	C881.308594,1264.755005 885.460815,1269.691528 888.381592,1275.273804 
	C890.867676,1280.025391 894.204224,1280.764771 899.555481,1279.463867 
	C893.745056,1270.616943 888.201172,1262.175903 883.218933,1253.318970 
M746.137329,1279.092651 
	C748.254517,1279.464111 750.371643,1279.835693 753.080444,1280.310913 
	C753.080444,1270.881592 753.080444,1262.290894 753.080444,1253.692383 
	C762.508789,1253.692383 771.427551,1253.692383 780.923218,1253.692383 
	C780.923218,1262.591309 780.923218,1271.164551 780.923218,1279.776367 
	C783.440125,1279.776367 785.370667,1279.776367 787.556458,1279.776367 
	C787.556458,1260.485962 787.556458,1241.432007 787.556458,1222.294189 
	C785.221436,1222.294189 783.183289,1222.294189 780.614014,1222.294189 
	C780.614014,1230.721069 780.614014,1238.788330 780.614014,1246.772583 
	C771.159302,1246.772583 762.246094,1246.772583 752.850586,1246.772583 
	C752.850586,1238.370605 752.850586,1230.288696 752.850586,1222.137939 
	C750.420044,1222.137939 748.481934,1222.137939 746.032898,1222.137939 
	C746.032898,1240.949341 746.032898,1259.554932 746.137329,1279.092651 
M1291.827515,1236.281128 
	C1287.878174,1240.143799 1286.362305,1246.457886 1279.455322,1248.741455 
	C1279.455322,1239.408936 1279.455322,1230.841553 1279.455322,1222.150513 
	C1276.894409,1222.150513 1274.945190,1222.150513 1272.780029,1222.150513 
	C1272.780029,1241.455933 1272.780029,1260.541504 1272.780029,1279.633423 
	C1275.091431,1279.633423 1277.132812,1279.633423 1279.643066,1279.633423 
	C1279.643066,1270.666992 1279.643066,1262.068481 1279.643066,1251.818726 
	C1282.299194,1253.655396 1284.186646,1254.444946 1285.334473,1255.842163 
	C1290.720215,1262.398438 1295.904297,1269.120483 1301.157104,1275.785889 
	C1305.016479,1280.682983 1305.878052,1280.951538 1312.633545,1279.119873 
	C1304.642334,1269.021729 1296.743652,1259.040405 1289.180542,1249.483154 
	C1295.979248,1240.776001 1303.057251,1231.711182 1310.190552,1222.575317 
	C1304.549561,1220.640015 1301.360474,1222.748535 1298.795044,1226.896240 
	C1296.877930,1229.995728 1294.436035,1232.770508 1291.827515,1236.281128 
M984.509521,1221.184814 
	C980.620972,1221.548950 976.732422,1221.913208 972.838501,1222.277832 
	C972.838501,1241.901611 972.838501,1260.788696 972.838501,1279.806152 
	C975.099304,1279.806152 977.052917,1279.806152 979.467957,1279.806152 
	C979.467957,1276.137329 979.468018,1272.667114 979.468018,1269.196899 
	C979.468018,1265.590576 979.467957,1261.984253 979.467957,1258.685425 
	C985.111084,1258.121948 990.148865,1258.109375 994.948914,1257.034912 
	C1004.287048,1254.944702 1009.397217,1247.558105 1008.877014,1237.916504 
	C1008.400757,1229.089355 1002.944702,1223.396484 993.376587,1221.901367 
	C990.758606,1221.492432 988.092163,1221.393555 984.509521,1221.184814 
M944.545410,1244.825928 
	C942.086365,1238.297485 939.723755,1231.729980 937.099731,1225.268555 
	C936.451416,1223.672119 934.954041,1222.420532 933.846985,1221.010498 
	C932.857117,1222.349976 931.502258,1223.550903 930.933289,1225.050171 
	C924.568909,1241.821045 918.320374,1258.635986 912.059998,1275.446167 
	C911.563599,1276.779175 911.209229,1278.164795 910.818420,1279.429932 
	C915.967712,1281.394165 917.822266,1279.038818 919.256958,1274.689331 
	C922.814026,1263.905518 923.004639,1263.968506 934.002014,1263.968506 
	C944.398132,1263.968506 944.639709,1263.886353 948.464111,1275.146973 
	C950.125671,1280.039429 952.599731,1281.167358 957.342102,1279.194092 
	C953.159973,1267.931030 949.003296,1256.736572 944.545410,1244.825928 
M1250.973755,1228.999878 
	C1251.753052,1227.282959 1252.532227,1225.566162 1253.506348,1223.419922 
	C1245.148682,1220.776489 1237.320679,1219.794922 1229.415405,1222.138184 
	C1222.321899,1224.240845 1218.825562,1230.119019 1219.581909,1237.530884 
	C1220.299927,1244.566772 1225.040894,1248.208496 1230.705322,1251.171631 
	C1235.114502,1253.478149 1239.952148,1255.290161 1243.704346,1258.401245 
	C1245.807617,1260.145264 1247.367554,1264.343384 1246.836060,1266.961548 
	C1246.301880,1269.592529 1243.262085,1272.626465 1240.605103,1273.679932 
	C1237.403320,1274.949585 1233.419067,1274.682983 1229.827026,1274.401123 
	C1226.611328,1274.148804 1223.468262,1272.972656 1220.134155,1272.165649 
	C1219.454834,1274.202026 1218.850830,1276.012451 1218.166382,1278.064209 
	C1226.586182,1281.351196 1234.760010,1282.169800 1243.016113,1279.821655 
	C1251.506714,1277.406738 1256.379761,1269.638062 1253.780029,1261.244263 
	C1252.574097,1257.350342 1249.121338,1253.641602 1245.759644,1251.053955 
	C1241.469238,1247.751465 1236.164307,1245.797607 1231.442017,1243.015991 
	C1227.900757,1240.930176 1225.678223,1237.877319 1226.813232,1233.455078 
	C1227.949585,1229.027100 1231.521606,1227.225464 1235.485962,1227.291260 
	C1240.418823,1227.373047 1245.334839,1228.459351 1250.973755,1228.999878 
M808.855591,1230.542847 
	C808.855591,1246.944214 808.855591,1263.345459 808.855591,1279.605713 
	C819.996887,1279.605713 830.381226,1279.605713 840.663269,1279.605713 
	C840.663269,1277.595459 840.663269,1275.989380 840.663269,1273.822266 
	C832.352051,1273.822266 824.281128,1273.822266 816.162842,1273.822266 
	C816.162842,1266.691040 816.162842,1260.131958 816.162842,1253.154541 
	C823.601501,1253.154541 830.698792,1253.154541 838.054749,1253.154541 
	C838.054749,1250.976807 838.054749,1249.222290 838.054749,1246.924316 
	C830.618164,1246.924316 823.387939,1246.924316 816.231689,1246.924316 
	C816.231689,1240.337769 816.231689,1234.301880 816.231689,1227.907227 
	C824.412170,1227.907227 832.176941,1227.907227 840.124390,1227.907227 
	C840.124390,1225.790161 840.124390,1224.049072 840.124390,1222.280884 
	C829.602295,1222.280884 819.379639,1222.280884 808.855591,1222.280884 
	C808.855591,1224.937622 808.855591,1227.248291 808.855591,1230.542847 
M1176.812500,1261.545410 
	C1176.812500,1258.927490 1176.812500,1256.309448 1176.812500,1253.085083 
	C1184.559570,1253.085083 1191.770630,1253.085083 1198.981445,1253.085083 
	C1198.981445,1250.712891 1198.981445,1248.970337 1198.981445,1246.867432 
	C1191.534668,1246.867432 1184.423828,1246.867432 1177.159546,1246.867432 
	C1177.159546,1240.465820 1177.159546,1234.432495 1177.159546,1227.844727 
	C1185.379639,1227.844727 1193.263794,1227.844727 1201.449219,1227.844727 
	C1201.338501,1225.551392 1201.255615,1223.834595 1201.177612,1222.216553 
	C1190.484375,1222.216553 1180.389526,1222.216553 1170.167969,1222.216553 
	C1170.167969,1241.542603 1170.167969,1260.583374 1170.167969,1279.672363 
	C1180.878540,1279.672363 1191.273682,1279.672363 1201.951660,1279.672363 
	C1201.852417,1277.595581 1201.770020,1275.869873 1201.669556,1273.769043 
	C1193.226685,1273.769043 1185.290894,1273.769043 1176.812500,1273.769043 
	C1176.812500,1269.762451 1176.812500,1266.143677 1176.812500,1261.545410 
M712.604370,1230.647583 
	C713.833435,1229.783569 715.020569,1228.254883 716.299072,1228.174194 
	C721.027466,1227.875732 725.786072,1228.055420 730.478027,1228.055420 
	C730.478027,1225.598145 730.478027,1223.972046 730.478027,1222.130615 
	C716.138977,1222.130615 702.037354,1222.130615 687.668640,1222.130615 
	C687.668640,1224.067871 687.668640,1225.803223 687.668640,1228.100708 
	C693.658936,1228.100708 699.400269,1228.100708 705.727112,1228.100708 
	C705.727112,1245.690308 705.727112,1262.725342 705.727112,1279.752197 
	C708.264038,1279.752197 710.194397,1279.752197 712.028625,1279.752197 
	C712.240845,1279.176147 712.453003,1278.868042 712.454102,1278.559082 
	C712.509216,1262.914795 712.546387,1247.270386 712.604370,1230.647583 
M1058.943115,1221.934692 
	C1057.755737,1223.139160 1056.201782,1224.148926 1055.441650,1225.580322 
	C1051.104126,1233.748291 1046.955566,1242.016846 1042.808716,1250.122437 
	C1038.660156,1242.346436 1034.100342,1234.817139 1030.574829,1226.831177 
	C1028.252563,1221.570801 1024.859375,1221.408447 1019.866028,1222.305176 
	C1022.807129,1227.706909 1025.208618,1233.028809 1028.409302,1237.816284 
	C1036.313843,1249.640015 1040.987549,1262.191040 1038.906616,1276.658081 
	C1038.769409,1277.611328 1039.035278,1278.622559 1039.122192,1279.714355 
	C1041.289307,1279.714355 1043.361572,1279.714355 1045.575928,1279.714355 
	C1045.686523,1278.791992 1045.911621,1278.127808 1045.818970,1277.511230 
	C1043.483154,1261.973877 1048.689453,1248.507446 1057.128662,1235.896118 
	C1058.234009,1234.244263 1059.076538,1232.415161 1060.022827,1230.658447 
	C1061.472900,1227.966431 1062.907227,1225.265869 1064.693237,1221.923462 
	C1062.402588,1221.923462 1061.086548,1221.923462 1058.943115,1221.934692 
M863.048889,1347.590088 
	C860.408875,1339.978394 856.835999,1337.191040 850.183594,1337.553711 
	C844.148315,1337.882690 839.622253,1341.373535 838.709534,1348.675293 
	C837.839600,1355.633911 838.003296,1362.935791 839.103210,1369.866089 
	C840.193237,1376.734375 844.942322,1379.887573 850.964844,1379.813965 
	C856.825256,1379.742310 861.790039,1376.276611 862.748901,1369.629150 
	C863.752563,1362.671021 863.125427,1355.477783 863.048889,1347.590088 
M932.978027,1353.348877 
	C933.558044,1359.423584 933.515747,1365.644409 934.896851,1371.531250 
	C936.221924,1377.178833 940.643005,1379.862183 945.992615,1379.792236 
	C951.348755,1379.721924 955.359375,1377.233032 957.201477,1372.179199 
	C960.564941,1362.951416 960.477356,1353.588013 957.103943,1344.375122 
	C955.438293,1339.826294 951.718933,1337.797363 946.987366,1337.567383 
	C942.310242,1337.339966 938.255554,1338.793945 936.092468,1343.103882 
	C934.631897,1346.014282 934.018066,1349.349854 932.978027,1353.348877 
M1114.445557,1379.813843 
	C1121.988525,1378.652222 1125.879028,1375.421265 1126.800781,1367.723022 
	C1127.542969,1361.524048 1127.525757,1355.090820 1126.770752,1348.892456 
	C1125.844482,1341.288086 1121.231934,1337.567749 1114.518311,1337.520752 
	C1108.177979,1337.476318 1103.225708,1341.091797 1102.259033,1348.347046 
	C1101.351685,1355.157349 1101.455078,1362.263062 1102.286011,1369.096191 
	C1103.022705,1375.155273 1106.947144,1379.315308 1114.445557,1379.813843 
M1197.444580,1358.090698 
	C1192.423950,1353.386353 1186.801758,1354.364014 1180.757935,1356.978516 
	C1182.839355,1348.374390 1187.973145,1343.484985 1195.477051,1341.103516 
	C1195.408325,1336.765625 1193.036255,1337.710083 1190.766113,1338.514648 
	C1178.743042,1342.776123 1170.953247,1362.077148 1177.065430,1373.265137 
	C1178.367310,1375.648315 1181.045288,1377.781738 1183.586426,1378.880493 
	C1188.728638,1381.104126 1194.396484,1379.368164 1197.576416,1375.431396 
	C1201.134766,1371.026123 1201.273682,1364.450073 1197.444580,1358.090698 
M975.852844,1377.809082 
	C977.726990,1378.441528 979.560974,1379.411865 981.483154,1379.640625 
	C986.489197,1380.236084 990.806274,1378.623291 993.397827,1374.140991 
	C996.156006,1369.370605 996.354675,1364.237305 993.443054,1359.460815 
	C990.760864,1355.060791 986.268982,1354.386719 981.590332,1355.016357 
	C979.769226,1355.261475 978.035339,1356.154663 975.786987,1356.912720 
	C977.784485,1348.493286 982.812500,1343.577515 990.391174,1341.152710 
	C989.350281,1337.310303 989.191467,1337.235229 985.500854,1338.629639 
	C975.104126,1342.558472 967.914612,1356.725952 970.640991,1368.863159 
	C971.320679,1371.889038 973.669495,1374.539917 975.852844,1377.809082 
M1086.569824,1353.963379 
	C1086.745972,1353.322876 1086.947144,1352.688110 1087.094482,1352.041016 
	C1088.484131,1345.941650 1087.221313,1341.524170 1083.409302,1339.110229 
	C1079.837891,1336.848999 1072.218506,1337.111084 1068.648682,1339.860840 
	C1067.896973,1340.439819 1067.823242,1341.898926 1067.437134,1342.952393 
	C1068.409546,1343.101685 1069.426270,1343.501831 1070.343750,1343.339966 
	C1071.626221,1343.113403 1072.798462,1342.284668 1074.080688,1342.032349 
	C1080.232300,1340.822144 1083.850464,1344.413574 1082.546509,1350.583496 
	C1082.037109,1352.993164 1081.334961,1355.550415 1079.999268,1357.561279 
	C1076.145752,1363.362793 1071.929810,1368.923828 1067.844482,1374.570923 
	C1066.958740,1375.795288 1066.023804,1376.984131 1064.631592,1378.823486 
	C1073.173218,1378.823486 1080.610474,1378.823486 1088.047852,1378.823486 
	C1088.346436,1378.360107 1088.645142,1377.896729 1088.943726,1377.433350 
	C1087.739258,1376.526001 1086.602295,1374.969971 1085.317139,1374.835938 
	C1081.829956,1374.472168 1078.279907,1374.711182 1074.582275,1374.711182 
	C1078.793457,1367.472900 1082.516235,1361.074219 1086.569824,1353.963379 
M1139.586182,1376.555786 
	C1137.948364,1379.646729 1140.472168,1378.974609 1141.907104,1378.994385 
	C1147.070801,1379.065674 1152.235962,1379.023315 1157.400635,1379.023682 
	C1158.868286,1379.023804 1160.335938,1379.023804 1162.139038,1379.023804 
	C1161.915649,1377.302856 1161.759155,1376.097900 1161.542358,1374.428101 
	C1156.846924,1374.428101 1152.490845,1374.428101 1147.566650,1374.428101 
	C1150.888794,1369.591797 1154.321655,1365.648804 1156.512817,1361.106812 
	C1158.693481,1356.586792 1160.249023,1351.549438 1160.921387,1346.582275 
	C1161.517700,1342.179321 1158.533936,1338.976318 1154.117798,1338.022949 
	C1149.060547,1336.931030 1144.250610,1337.668579 1140.263062,1342.158081 
	C1141.703613,1342.906494 1143.141113,1342.974854 1144.579224,1343.032837 
	C1147.866943,1343.165527 1152.115234,1342.116699 1154.151611,1343.779175 
	C1155.915771,1345.219360 1155.659790,1349.776733 1155.376709,1352.872192 
	C1155.162109,1355.219604 1153.836304,1357.673828 1152.418823,1359.663086 
	C1148.467529,1365.208374 1144.211426,1370.536499 1139.586182,1376.555786 
M808.088013,1379.032104 
	C813.835571,1379.032104 819.583130,1379.032104 825.453857,1379.032104 
	C825.773010,1372.147827 819.871765,1376.292725 817.385620,1372.928345 
	C817.385620,1361.822754 817.385620,1349.803345 817.385620,1336.122559 
	C811.681763,1340.447998 807.195923,1343.849731 802.315430,1347.550903 
	C807.498291,1352.608398 809.161987,1344.604248 812.606567,1345.553711 
	C812.606567,1355.159424 812.606567,1364.713867 812.606567,1374.437866 
	C810.012207,1374.599976 807.728027,1374.742798 803.690918,1374.994995 
	C805.357788,1376.893921 806.295166,1377.961670 808.088013,1379.032104 
M896.333008,1373.681641 
	C896.332764,1375.426147 896.105347,1377.225342 896.501160,1378.874756 
	C896.593506,1379.259766 899.190491,1379.666382 899.939392,1379.116089 
	C900.910767,1378.402832 901.903259,1375.850586 901.639282,1375.637939 
	C900.308167,1374.565186 898.571411,1373.995728 896.333008,1373.681641 
M1032.928467,1374.299194 
	C1031.187866,1374.216919 1029.390259,1373.879272 1027.749512,1374.245117 
	C1027.374512,1374.328857 1027.080444,1377.058838 1027.608154,1378.158813 
	C1028.004883,1378.985718 1030.544556,1379.804443 1030.801636,1379.500977 
	C1031.887817,1378.219116 1032.476685,1376.515747 1032.928467,1374.299194 
z"/>
<path fill="#DEB17C" opacity="1.000000" stroke="none" 
	d="
M1192.132690,949.133728 
	C1172.317017,965.772156 1150.556763,978.161133 1125.464233,983.435242 
	C1113.320679,985.987671 1100.745728,987.506165 1088.346069,987.639893 
	C1043.020142,988.128784 997.685852,987.837952 952.354736,987.841003 
	C951.603210,987.841064 950.851746,987.841064 950.100220,987.841064 
	C964.703186,982.620361 969.338501,970.638184 971.624695,957.134705 
	C972.372437,952.718445 972.698425,948.179321 972.701721,943.695984 
	C972.763733,860.200073 972.776489,776.704102 972.677856,693.208252 
	C972.671814,688.079529 972.005554,682.885193 971.041504,677.836914 
	C968.628052,665.198975 963.421143,654.436646 950.201172,648.996521 
	C951.913269,648.996521 953.625366,648.996521 955.337463,648.996521 
	C996.502136,648.996399 1037.678833,649.635620 1078.828735,648.855652 
	C1151.920288,647.470276 1216.313599,694.230835 1239.907837,761.807190 
	C1256.854492,810.343994 1252.051514,857.458984 1228.755615,902.920776 
	C1219.688110,920.615601 1207.239014,935.726624 1192.132690,949.133728 
M1118.922485,668.493469 
	C1085.756104,653.127625 1050.519165,654.124390 1015.256714,654.713379 
	C1015.256714,763.944214 1015.256714,872.513977 1015.256714,981.351807 
	C1040.536987,981.670227 1065.554443,982.506714 1090.115356,976.821228 
	C1143.604248,964.439453 1179.198242,932.192566 1195.287231,879.595093 
	C1208.260620,837.182983 1207.715210,794.420715 1193.942627,752.293823 
	C1181.392090,713.904846 1157.154419,685.278748 1118.922485,668.493469 
z"/>
<path fill="#DDB07C" opacity="1.000000" stroke="none" 
	d="
M635.496094,788.439819 
	C626.699524,796.056763 617.925232,803.699768 609.093384,811.275574 
	C606.239136,813.723999 605.827698,816.205505 606.955566,819.974182 
	C611.116333,833.876953 607.546265,846.927307 601.469788,859.519836 
	C601.208191,860.062012 600.571777,860.459778 600.037964,860.817261 
	C599.811401,860.968872 599.398682,860.842468 598.327881,860.842468 
	C595.106873,850.166077 595.753540,839.220886 597.864563,826.787354 
	C596.207581,828.748596 595.408752,829.467285 594.884094,830.349182 
	C587.677734,842.461304 582.656189,855.457336 579.614136,869.191284 
	C579.311279,870.558350 580.066711,872.727661 581.100281,873.735596 
	C592.266418,884.624268 594.632996,898.491272 594.791260,913.151978 
	C594.796326,913.625244 594.635010,914.143433 594.408752,914.564026 
	C594.183105,914.983582 593.777832,915.306580 592.790466,916.411438 
	C585.548279,908.227356 581.334106,898.668945 576.464661,888.857849 
	C576.045410,892.466736 575.249512,896.078430 575.275940,899.684082 
	C575.363708,911.669373 575.370850,923.679871 576.242676,935.619873 
	C576.510071,939.282043 579.158630,942.933411 581.230286,946.270935 
	C588.264526,957.603333 588.554504,969.425476 584.241150,982.584900 
	C582.421936,981.395935 580.665405,980.630066 579.412903,979.365112 
	C573.102661,972.992249 570.318054,965.328613 570.713013,956.281799 
	C571.081421,947.842896 570.874451,939.378296 570.894348,930.924927 
	C570.913391,922.825134 570.898376,914.725159 570.898376,906.625305 
	C570.369324,906.521118 569.840210,906.416992 569.311157,906.312805 
	C568.310242,908.097961 567.263000,909.858826 566.316101,911.672180 
	C560.745850,922.339600 554.615112,932.624146 545.825134,941.025391 
	C544.614441,942.182495 542.909912,942.822998 541.433960,943.702637 
	C540.968384,941.871399 539.942810,939.982727 540.123474,938.217590 
	C541.985474,920.018616 550.437195,906.089844 567.265259,898.048889 
	C570.029297,896.728149 571.062866,895.214844 571.605469,892.311401 
	C573.679871,881.210876 576.115479,870.177917 578.392883,859.114990 
	C578.541565,858.392883 578.493591,857.630432 577.609314,856.298279 
	C573.819458,860.811890 570.061401,865.352844 566.225342,869.826843 
	C564.500793,871.838135 562.836304,873.997681 560.760193,875.588318 
	C557.609863,878.001892 555.079468,877.044556 555.061584,873.069580 
	C555.043518,869.052368 555.493103,864.533569 557.344177,861.100586 
	C563.002258,850.607178 571.215149,842.904358 583.608398,840.805359 
	C584.680481,840.623718 586.022644,839.619934 586.488831,838.640686 
	C593.229980,824.480835 602.402893,812.124756 613.725159,801.319153 
	C614.056396,801.003113 614.163513,800.452393 614.710999,799.310486 
	C609.981384,800.851990 605.881165,802.729065 601.586426,803.454346 
	C595.921692,804.411072 590.108826,804.604431 584.348816,804.790649 
	C583.150513,804.829346 581.259766,803.633850 580.882324,802.579529 
	C580.572571,801.714539 581.758057,799.880920 582.756958,799.046936 
	C594.292236,789.416138 607.422607,786.596130 622.021912,789.985657 
	C623.745728,790.385864 626.045471,790.568542 627.442261,789.757141 
	C638.938843,783.078613 650.286987,776.144226 661.670715,769.271912 
	C662.183716,768.962280 662.606750,768.503540 663.569702,767.697205 
	C657.357544,767.132690 651.739380,766.922241 646.239685,766.003052 
	C643.229614,765.499939 640.209167,764.142639 637.583130,762.534302 
	C635.293274,761.131775 634.774292,759.105652 637.630554,757.049316 
	C648.598694,749.152771 665.927917,749.897644 675.583252,759.167542 
	C677.856995,761.350464 679.591553,761.716980 682.475281,760.644287 
	C689.015930,758.211060 695.648499,755.961365 702.372498,754.102966 
	C708.935913,752.288818 715.659424,751.053589 721.749512,749.690308 
	C715.973328,746.685303 709.699951,743.463928 703.476196,740.149414 
	C702.166321,739.451904 700.905151,738.544983 699.863403,737.494629 
	C698.774109,736.396362 697.976624,735.008789 697.051514,733.747681 
	C698.470276,733.166992 699.856201,732.187683 701.312988,732.067749 
	C715.019958,730.939148 726.490234,735.399231 735.468628,745.994690 
	C736.362854,747.049805 737.719666,748.461060 738.852356,748.452576 
	C753.633362,748.342102 768.030701,750.285889 782.233032,756.579773 
	C782.233032,715.705200 782.233032,675.642700 782.233032,635.416748 
	C770.521118,634.289001 758.699219,633.708923 747.061646,631.925720 
	C711.799500,626.522339 678.170044,616.669067 649.701355,593.803894 
	C647.756165,592.241638 646.098022,590.296814 644.065918,588.873169 
	C640.307251,586.239929 639.902771,583.229553 642.172058,580.027466 
	C651.837280,587.008789 661.240417,594.443848 671.267761,600.911316 
	C692.862610,614.839539 717.230530,620.604004 742.348999,624.000244 
	C784.956299,629.761108 826.380737,623.597961 867.148865,611.546143 
	C902.395569,601.126587 937.488647,590.187622 972.649475,579.477600 
	C1009.778076,568.168274 1047.445435,560.106262 1086.548096,561.354980 
	C1117.832397,562.353943 1148.086182,567.997559 1176.033081,582.888062 
	C1194.944214,592.964355 1210.436646,607.127441 1224.226685,623.732239 
	C1223.380493,624.290955 1222.886597,624.717224 1222.316162,624.972778 
	C1221.115723,625.510681 1219.875244,625.959045 1218.635010,626.450623 
	C1214.319092,621.460266 1210.332153,616.334961 1205.819458,611.724365 
	C1189.074829,594.616516 1168.032471,586.020508 1144.911621,582.039795 
	C1102.131348,574.674438 1059.936768,578.545532 1018.239441,589.539368 
	C977.226685,600.352661 936.295654,611.475708 895.298035,622.346985 
	C874.171936,627.949036 852.699707,631.614746 830.874146,633.113342 
	C828.744080,633.259583 826.630249,633.643921 824.065613,633.974915 
	C824.065613,636.026672 824.065674,637.826111 824.065674,639.625549 
	C824.065735,740.456116 824.032654,841.286804 824.147278,942.117188 
	C824.154236,948.227356 824.884583,954.424683 826.064697,960.426819 
	C828.416016,972.386597 833.623657,982.509033 845.979248,987.499146 
	C817.235474,987.499146 788.491699,987.499146 759.746094,987.493774 
	C759.891418,987.229980 759.982056,986.810303 760.193665,986.736084 
	C775.819702,981.259338 779.816895,968.067993 781.914734,953.745972 
	C782.515564,949.643738 782.589050,945.437317 782.591919,941.278442 
	C782.632935,882.613403 782.561951,823.948120 782.731140,765.283569 
	C782.744629,760.635803 781.665833,758.021790 776.871887,757.457214 
	C775.406067,757.284607 773.956909,756.752258 772.563782,756.218628 
	C767.489014,754.274475 763.612122,754.897766 759.275574,759.072388 
	C751.868530,766.202942 742.012329,768.758667 732.000061,770.244812 
	C731.124512,770.374817 730.167969,769.959229 728.403259,769.647766 
	C733.334778,760.779846 741.641357,757.462463 749.563354,753.663147 
	C749.493408,753.143372 749.423401,752.623535 749.353455,752.103760 
	C740.390808,752.538391 731.429810,753.012085 722.464844,753.391113 
	C718.008606,753.579468 714.961975,755.485474 712.330688,759.273499 
	C706.820251,767.206299 699.344971,773.117188 690.567688,777.136353 
	C687.778503,778.413696 684.504211,778.631592 681.138062,778.669250 
	C683.616577,770.150940 690.372681,765.712891 696.948303,759.786743 
	C694.924194,760.023438 693.825684,759.914062 692.933655,760.292053 
	C680.391663,765.606018 667.817688,770.854370 655.425110,776.499634 
	C653.664734,777.301575 651.957703,779.994812 651.686462,782.009338 
	C649.606812,797.455811 640.195618,808.233459 629.301147,818.123291 
	C628.677979,818.688965 627.059143,819.170410 626.740662,818.852539 
	C626.034729,818.147888 625.324646,816.763123 625.556885,815.912537 
	C627.205505,809.873779 628.805359,803.791077 631.024109,797.951599 
	C632.114929,795.080872 634.492310,792.699036 636.765503,789.528564 
	C637.204590,788.604675 637.165527,788.248108 637.126526,787.891541 
	C636.583069,788.074341 636.039551,788.257080 635.496094,788.439819 
M578.292847,857.646790 
	C578.324280,857.029236 578.355774,856.411743 578.387207,855.794189 
	C578.076904,856.276245 577.766663,856.758240 578.292847,857.646790 
z"/>
<path fill="#DAAE7B" opacity="1.000000" stroke="none" 
	d="
M1308.708862,900.958252 
	C1313.715576,898.069275 1318.511963,894.669800 1323.809814,892.487244 
	C1326.875122,891.224548 1330.748169,891.922302 1334.257690,891.737671 
	C1333.375488,894.889404 1333.206787,898.513611 1331.486938,901.110535 
	C1324.306763,911.952332 1314.187134,917.079407 1300.935669,915.708984 
	C1299.377808,915.547791 1297.160522,916.955505 1296.023804,918.294067 
	C1287.766357,928.016846 1279.707642,937.908508 1271.092529,948.213135 
	C1270.368530,949.074646 1270.138062,949.469849 1269.907715,949.864990 
	C1270.772827,949.791199 1271.637817,949.717407 1272.502930,949.643677 
	C1279.567261,948.758423 1286.618774,947.729065 1293.705200,947.089539 
	C1295.467651,946.930542 1297.343872,948.031921 1299.167725,948.553955 
	C1298.010254,950.226135 1297.184326,952.339172 1295.641724,953.499207 
	C1285.383789,961.213318 1274.042358,964.010193 1261.313477,960.946167 
	C1259.139404,960.422791 1256.062378,960.977966 1254.209717,962.229553 
	C1243.067871,969.756897 1231.115356,975.337830 1218.036987,978.458679 
	C1215.850952,978.980347 1213.588989,979.184692 1211.362183,979.535645 
	C1211.219971,979.111206 1211.077759,978.686707 1210.935547,978.262207 
	C1212.299561,977.759766 1213.655640,977.234741 1215.029175,976.759705 
	C1217.697144,975.837036 1220.345825,974.841797 1223.054688,974.056580 
	C1228.870117,972.370850 1232.817749,969.953552 1234.021973,962.781555 
	C1235.626709,953.224915 1242.274170,945.922058 1249.160522,939.255188 
	C1249.975098,938.466553 1251.261475,938.165039 1253.222412,937.196472 
	C1253.198486,946.683533 1249.871582,953.919739 1245.138916,961.452148 
	C1244.786987,962.388000 1244.853149,962.719360 1244.919189,963.050781 
	C1245.446777,962.882996 1245.974365,962.715149 1246.501953,962.547363 
	C1254.352295,956.408875 1262.287964,950.373535 1269.966675,944.027466 
	C1271.204224,943.004578 1271.481934,940.638428 1271.888306,938.822632 
	C1273.765503,930.436646 1275.361084,921.983215 1277.441406,913.649780 
	C1278.062866,911.160828 1279.615356,908.707886 1281.326172,906.749329 
	C1282.694214,905.182983 1284.948975,904.391235 1286.810303,903.255737 
	C1287.166504,905.112549 1288.011841,907.030518 1287.788940,908.815063 
	C1287.072266,914.553894 1285.961182,920.243469 1284.848145,926.870056 
	C1286.110962,925.526245 1287.051025,924.796326 1287.647583,923.849915 
	C1294.649170,912.741028 1301.558838,901.574097 1308.590210,890.484131 
	C1310.408325,887.616211 1310.131836,885.313477 1308.533081,882.256714 
	C1301.007812,867.868713 1303.148193,853.126953 1307.666626,838.282104 
	C1316.754761,847.073730 1317.075439,858.278503 1316.437378,870.044434 
	C1317.157837,869.631531 1317.756836,869.492615 1317.826782,869.218628 
	C1320.904297,857.163940 1324.078491,845.129517 1326.804932,832.994629 
	C1327.180176,831.324341 1325.845459,828.460083 1324.386719,827.315674 
	C1312.738281,818.176514 1307.979980,805.474487 1305.360962,791.615051 
	C1305.190674,790.714233 1306.021729,789.624146 1306.386963,788.622070 
	C1307.396851,789.023743 1308.791870,789.131958 1309.356689,789.872925 
	C1314.380981,796.464661 1319.285889,803.148376 1324.154663,809.856689 
	C1325.070190,811.118042 1325.668945,812.609253 1326.413818,813.994385 
	C1326.894165,813.872314 1327.374512,813.750244 1327.854980,813.628174 
	C1326.808350,806.547424 1326.207764,799.362915 1324.592407,792.414368 
	C1322.904297,785.152771 1320.195679,778.131470 1318.026001,770.976929 
	C1317.268555,768.479126 1315.952637,767.527588 1313.186035,767.122803 
	C1297.961670,764.895081 1288.187500,754.906006 1279.986084,742.922424 
	C1279.538330,742.268188 1279.812500,741.119751 1279.750488,740.201355 
	C1280.803345,740.130432 1282.046753,739.657471 1282.879272,740.051758 
	C1290.075073,743.459473 1297.205322,747.006531 1304.333130,750.556274 
	C1305.612793,751.193542 1306.791382,752.033997 1309.056152,753.414124 
	C1308.147339,751.239136 1307.864868,750.001160 1307.191284,749.036499 
	C1299.102051,737.452026 1291.328857,725.613525 1282.602295,714.527039 
	C1279.869385,711.055054 1274.667847,709.332581 1270.351929,707.337891 
	C1258.759399,701.980164 1252.410889,692.660767 1248.538696,679.028015 
	C1253.802124,680.285645 1258.380493,680.516785 1262.030762,682.476685 
	C1266.300171,684.769165 1271.229492,687.814392 1273.302368,691.852478 
	C1280.094849,705.084290 1290.927002,715.204285 1299.004272,727.378357 
	C1300.421631,729.514221 1301.979370,731.556824 1303.985229,733.477234 
	C1303.238770,717.949524 1300.379028,702.514893 1305.666992,686.037842 
	C1307.687500,688.237427 1309.248901,689.410828 1310.122437,690.969604 
	C1319.149292,707.076721 1320.334961,723.371338 1311.135376,739.910400 
	C1310.358154,741.307922 1309.609009,743.489197 1310.153931,744.734436 
	C1315.334473,756.574341 1320.797607,768.290588 1326.469238,780.675232 
	C1326.992920,774.977722 1327.484131,769.540283 1327.995483,764.104797 
	C1328.259644,761.295898 1328.286621,758.424194 1328.945557,755.708191 
	C1329.338501,754.088745 1330.712524,751.533752 1331.710083,751.503235 
	C1333.299805,751.454529 1335.790283,752.788879 1336.406128,754.193298 
	C1338.302002,758.516663 1340.538940,763.104065 1340.741455,767.673096 
	C1341.209839,778.238403 1338.674072,788.149231 1330.681763,795.939514 
	C1329.976440,796.626892 1329.378906,797.979248 1329.521729,798.900269 
	C1332.016235,814.999573 1331.761841,831.036865 1329.210449,847.430237 
	C1332.064819,843.670166 1334.575073,839.570190 1337.865112,836.240601 
	C1341.549194,832.512329 1345.818237,829.312378 1350.099609,826.256226 
	C1351.302734,825.397461 1353.444214,825.853577 1355.155396,825.706604 
	C1355.144287,827.266663 1355.493164,828.933716 1355.066406,830.370239 
	C1350.856812,844.538269 1341.814575,854.266541 1328.063232,859.777100 
	C1326.239624,860.507812 1324.312256,862.250793 1323.495239,864.016479 
	C1318.127808,875.616272 1313.051758,887.351013 1307.539062,899.593262 
	C1307.171875,900.729431 1307.146118,901.313965 1307.120361,901.898560 
	C1307.649902,901.585144 1308.179443,901.271729 1308.708862,900.958252 
z"/>
<path fill="#DAAE7B" opacity="1.000000" stroke="none" 
	d="
M1150.904053,1255.640381 
	C1147.886353,1276.340332 1133.817383,1284.277710 1108.769165,1279.623169 
	C1108.769165,1260.581299 1108.769165,1241.493408 1108.769165,1222.010986 
	C1117.631470,1220.932251 1126.407227,1220.008789 1134.961792,1223.001343 
	C1145.578491,1226.715332 1149.760254,1235.261597 1150.893066,1245.701660 
	C1151.232178,1248.828003 1150.943115,1252.022583 1150.904053,1255.640381 
M1115.441528,1244.503540 
	C1115.441528,1254.272827 1115.441528,1264.042236 1115.441528,1273.673950 
	C1127.720825,1276.030273 1135.849731,1273.352539 1140.318359,1265.816650 
	C1145.501099,1257.076294 1144.829224,1241.344727 1138.957886,1233.960693 
	C1133.988892,1227.711670 1124.734863,1225.556641 1115.441528,1228.676636 
	C1115.441528,1233.542236 1115.441528,1238.524292 1115.441528,1244.503540 
z"/>
<path fill="#DBAF7B" opacity="1.000000" stroke="none" 
	d="
M882.938110,1253.526978 
	C888.201172,1262.175903 893.745056,1270.616943 899.555481,1279.463867 
	C894.204224,1280.764771 890.867676,1280.025391 888.381592,1275.273804 
	C885.460815,1269.691528 881.308594,1264.755005 878.367859,1259.181152 
	C875.972961,1254.641602 872.367004,1254.169922 867.554810,1254.004639 
	C867.554810,1262.772583 867.554810,1271.201294 867.554810,1279.812744 
	C865.040710,1279.812744 863.082275,1279.812744 860.532043,1279.812744 
	C860.532043,1274.561035 860.532043,1269.446533 860.532104,1264.332153 
	C860.532288,1251.837524 860.664490,1239.340698 860.451416,1226.849609 
	C860.388428,1223.159790 861.532837,1221.762939 865.212280,1221.816040 
	C869.691956,1221.880615 874.225525,1221.027588 878.650818,1221.453613 
	C887.973877,1222.351318 893.163330,1226.940430 894.147827,1234.285034 
	C895.376770,1243.453247 891.996765,1249.339966 882.938110,1253.526978 
M884.626953,1244.999878 
	C887.891724,1239.414429 887.845886,1234.376221 884.497131,1230.731934 
	C881.638367,1227.620850 872.748718,1225.764404 869.027710,1227.651245 
	C868.319458,1228.010498 867.550049,1229.086060 867.535706,1229.844849 
	C867.416443,1236.130005 867.468201,1242.418335 867.468201,1248.620117 
	C876.234619,1249.690796 879.077148,1249.133911 884.626953,1244.999878 
z"/>
<path fill="#DAAE7B" opacity="1.000000" stroke="none" 
	d="
M746.085083,1278.626709 
	C746.032898,1259.554932 746.032898,1240.949341 746.032898,1222.137939 
	C748.481934,1222.137939 750.420044,1222.137939 752.850586,1222.137939 
	C752.850586,1230.288696 752.850586,1238.370605 752.850586,1246.772583 
	C762.246094,1246.772583 771.159302,1246.772583 780.614014,1246.772583 
	C780.614014,1238.788330 780.614014,1230.721069 780.614014,1222.294189 
	C783.183289,1222.294189 785.221436,1222.294189 787.556458,1222.294189 
	C787.556458,1241.432007 787.556458,1260.485962 787.556458,1279.776367 
	C785.370667,1279.776367 783.440125,1279.776367 780.923218,1279.776367 
	C780.923218,1271.164551 780.923218,1262.591309 780.923218,1253.692383 
	C771.427551,1253.692383 762.508789,1253.692383 753.080444,1253.692383 
	C753.080444,1262.290894 753.080444,1270.881592 753.080444,1280.310913 
	C750.371643,1279.835693 748.254517,1279.464111 746.085083,1278.626709 
z"/>
<path fill="#DBAF7B" opacity="1.000000" stroke="none" 
	d="
M1292.027588,1235.985596 
	C1294.436035,1232.770508 1296.877930,1229.995728 1298.795044,1226.896240 
	C1301.360474,1222.748535 1304.549561,1220.640015 1310.190552,1222.575317 
	C1303.057251,1231.711182 1295.979248,1240.776001 1289.180542,1249.483154 
	C1296.743652,1259.040405 1304.642334,1269.021729 1312.633545,1279.119873 
	C1305.878052,1280.951538 1305.016479,1280.682983 1301.157104,1275.785889 
	C1295.904297,1269.120483 1290.720215,1262.398438 1285.334473,1255.842163 
	C1284.186646,1254.444946 1282.299194,1253.655396 1279.643066,1251.818726 
	C1279.643066,1262.068481 1279.643066,1270.666992 1279.643066,1279.633423 
	C1277.132812,1279.633423 1275.091431,1279.633423 1272.780029,1279.633423 
	C1272.780029,1260.541504 1272.780029,1241.455933 1272.780029,1222.150513 
	C1274.945190,1222.150513 1276.894409,1222.150513 1279.455322,1222.150513 
	C1279.455322,1230.841553 1279.455322,1239.408936 1279.455322,1248.741455 
	C1286.362305,1246.457886 1287.878174,1240.143799 1292.027588,1235.985596 
z"/>
<path fill="#DBAF7B" opacity="1.000000" stroke="none" 
	d="
M984.978760,1221.168579 
	C988.092163,1221.393555 990.758606,1221.492432 993.376587,1221.901367 
	C1002.944702,1223.396484 1008.400757,1229.089355 1008.877014,1237.916504 
	C1009.397217,1247.558105 1004.287048,1254.944702 994.948914,1257.034912 
	C990.148865,1258.109375 985.111084,1258.121948 979.467957,1258.685425 
	C979.467957,1261.984253 979.468018,1265.590576 979.468018,1269.196899 
	C979.468018,1272.667114 979.467957,1276.137329 979.467957,1279.806152 
	C977.052917,1279.806152 975.099304,1279.806152 972.838501,1279.806152 
	C972.838501,1260.788696 972.838501,1241.901611 972.838501,1222.277832 
	C976.732422,1221.913208 980.620972,1221.548950 984.978760,1221.168579 
M1001.041565,1235.644165 
	C998.031921,1229.076538 987.696228,1224.787476 981.220276,1227.525269 
	C980.481323,1227.837524 979.571350,1228.882935 979.559509,1229.601807 
	C979.437683,1236.991333 979.484802,1244.383545 979.484802,1251.665894 
	C996.135559,1253.209473 1002.108887,1248.806519 1001.041565,1235.644165 
z"/>
<path fill="#D8AD7A" opacity="1.000000" stroke="none" 
	d="
M944.696045,1245.184082 
	C949.003296,1256.736572 953.159973,1267.931030 957.342102,1279.194092 
	C952.599731,1281.167358 950.125671,1280.039429 948.464111,1275.146973 
	C944.639709,1263.886353 944.398132,1263.968506 934.002014,1263.968506 
	C923.004639,1263.968506 922.814026,1263.905518 919.256958,1274.689331 
	C917.822266,1279.038818 915.967712,1281.394165 910.818420,1279.429932 
	C911.209229,1278.164795 911.563599,1276.779175 912.059998,1275.446167 
	C918.320374,1258.635986 924.568909,1241.821045 930.933289,1225.050171 
	C931.502258,1223.550903 932.857117,1222.349976 933.846924,1221.010498 
	C934.954041,1222.420532 936.451416,1223.672119 937.099731,1225.268555 
	C939.723755,1231.729980 942.086365,1238.297485 944.696045,1245.184082 
M937.211365,1257.951538 
	C938.744690,1257.851440 940.278015,1257.751343 942.077698,1257.633911 
	C939.181763,1249.274048 936.476318,1241.464233 933.716431,1233.497192 
	C930.979370,1241.738892 928.363098,1249.616699 925.595032,1257.951660 
	C929.682495,1257.951660 932.984253,1257.951660 937.211365,1257.951538 
z"/>
<path fill="#D8AD7A" opacity="1.000000" stroke="none" 
	d="
M1250.615967,1229.055908 
	C1245.334839,1228.459351 1240.418823,1227.373047 1235.485962,1227.291260 
	C1231.521606,1227.225464 1227.949585,1229.027100 1226.813232,1233.455078 
	C1225.678223,1237.877319 1227.900757,1240.930176 1231.442017,1243.015991 
	C1236.164307,1245.797607 1241.469238,1247.751465 1245.759644,1251.053955 
	C1249.121338,1253.641602 1252.574097,1257.350342 1253.780029,1261.244263 
	C1256.379761,1269.638062 1251.506714,1277.406738 1243.016113,1279.821655 
	C1234.760010,1282.169800 1226.586182,1281.351196 1218.166382,1278.064209 
	C1218.850830,1276.012451 1219.454834,1274.202026 1220.134155,1272.165649 
	C1223.468262,1272.972656 1226.611328,1274.148804 1229.827026,1274.401123 
	C1233.419067,1274.682983 1237.403320,1274.949585 1240.605103,1273.679932 
	C1243.262085,1272.626465 1246.301880,1269.592529 1246.836060,1266.961548 
	C1247.367554,1264.343384 1245.807617,1260.145264 1243.704346,1258.401245 
	C1239.952148,1255.290161 1235.114502,1253.478149 1230.705322,1251.171631 
	C1225.040894,1248.208496 1220.299927,1244.566772 1219.581909,1237.530884 
	C1218.825562,1230.119019 1222.321899,1224.240845 1229.415405,1222.138184 
	C1237.320679,1219.794922 1245.148682,1220.776489 1253.506348,1223.419922 
	C1252.532227,1225.566162 1251.753052,1227.282959 1250.615967,1229.055908 
z"/>
<path fill="#DDB07C" opacity="1.000000" stroke="none" 
	d="
M808.855591,1230.050903 
	C808.855591,1227.248291 808.855591,1224.937622 808.855591,1222.280884 
	C819.379639,1222.280884 829.602295,1222.280884 840.124390,1222.280884 
	C840.124390,1224.049072 840.124390,1225.790161 840.124390,1227.907227 
	C832.176941,1227.907227 824.412170,1227.907227 816.231689,1227.907227 
	C816.231689,1234.301880 816.231689,1240.337769 816.231689,1246.924316 
	C823.387939,1246.924316 830.618164,1246.924316 838.054749,1246.924316 
	C838.054749,1249.222290 838.054749,1250.976807 838.054749,1253.154541 
	C830.698792,1253.154541 823.601501,1253.154541 816.162842,1253.154541 
	C816.162842,1260.131958 816.162842,1266.691040 816.162842,1273.822266 
	C824.281128,1273.822266 832.352051,1273.822266 840.663269,1273.822266 
	C840.663269,1275.989380 840.663269,1277.595459 840.663269,1279.605713 
	C830.381226,1279.605713 819.996887,1279.605713 808.855591,1279.605713 
	C808.855591,1263.345459 808.855591,1246.944214 808.855591,1230.050903 
z"/>
<path fill="#DDB07C" opacity="1.000000" stroke="none" 
	d="
M1176.812500,1262.035156 
	C1176.812500,1266.143677 1176.812500,1269.762451 1176.812500,1273.769043 
	C1185.290894,1273.769043 1193.226685,1273.769043 1201.669556,1273.769043 
	C1201.770020,1275.869873 1201.852417,1277.595581 1201.951660,1279.672363 
	C1191.273682,1279.672363 1180.878540,1279.672363 1170.167969,1279.672363 
	C1170.167969,1260.583374 1170.167969,1241.542603 1170.167969,1222.216553 
	C1180.389526,1222.216553 1190.484375,1222.216553 1201.177612,1222.216553 
	C1201.255615,1223.834595 1201.338501,1225.551392 1201.449219,1227.844727 
	C1193.263794,1227.844727 1185.379639,1227.844727 1177.159546,1227.844727 
	C1177.159546,1234.432495 1177.159546,1240.465820 1177.159546,1246.867432 
	C1184.423828,1246.867432 1191.534668,1246.867432 1198.981445,1246.867432 
	C1198.981445,1248.970337 1198.981445,1250.712891 1198.981445,1253.085083 
	C1191.770630,1253.085083 1184.559570,1253.085083 1176.812500,1253.085083 
	C1176.812500,1256.309448 1176.812500,1258.927490 1176.812500,1262.035156 
z"/>
<path fill="#D6AC79" opacity="1.000000" stroke="none" 
	d="
M712.594971,1231.136841 
	C712.546387,1247.270386 712.509216,1262.914795 712.454102,1278.559082 
	C712.453003,1278.868042 712.240845,1279.176147 712.028625,1279.752197 
	C710.194397,1279.752197 708.264038,1279.752197 705.727112,1279.752197 
	C705.727112,1262.725342 705.727112,1245.690308 705.727112,1228.100708 
	C699.400269,1228.100708 693.658936,1228.100708 687.668640,1228.100708 
	C687.668640,1225.803223 687.668640,1224.067871 687.668640,1222.130615 
	C702.037354,1222.130615 716.138977,1222.130615 730.478027,1222.130615 
	C730.478027,1223.972046 730.478027,1225.598145 730.478027,1228.055420 
	C725.786072,1228.055420 721.027466,1227.875732 716.299072,1228.174194 
	C715.020569,1228.254883 713.833435,1229.783569 712.594971,1231.136841 
z"/>
<path fill="#D8AD7A" opacity="1.000000" stroke="none" 
	d="
M1059.356812,1221.929077 
	C1061.086548,1221.923462 1062.402588,1221.923462 1064.693237,1221.923462 
	C1062.907227,1225.265869 1061.472900,1227.966431 1060.022827,1230.658447 
	C1059.076538,1232.415161 1058.234009,1234.244263 1057.128662,1235.896118 
	C1048.689453,1248.507446 1043.483154,1261.973877 1045.818970,1277.511230 
	C1045.911621,1278.127808 1045.686523,1278.791992 1045.575928,1279.714355 
	C1043.361572,1279.714355 1041.289307,1279.714355 1039.122192,1279.714355 
	C1039.035278,1278.622559 1038.769409,1277.611328 1038.906616,1276.658081 
	C1040.987549,1262.191040 1036.313843,1249.640015 1028.409302,1237.816284 
	C1025.208618,1233.028809 1022.807129,1227.706909 1019.866028,1222.305176 
	C1024.859375,1221.408447 1028.252563,1221.570801 1030.574829,1226.831177 
	C1034.100342,1234.817139 1038.660156,1242.346436 1042.808716,1250.122437 
	C1046.955566,1242.016846 1051.104126,1233.748291 1055.441650,1225.580322 
	C1056.201782,1224.148926 1057.755737,1223.139160 1059.356812,1221.929077 
z"/>
<path fill="#D4AB79" opacity="1.000000" stroke="none" 
	d="
M863.130005,1347.988770 
	C863.125427,1355.477783 863.752563,1362.671021 862.748901,1369.629150 
	C861.790039,1376.276611 856.825256,1379.742310 850.964844,1379.813965 
	C844.942322,1379.887573 840.193237,1376.734375 839.103210,1369.866089 
	C838.003296,1362.935791 837.839600,1355.633911 838.709534,1348.675293 
	C839.622253,1341.373535 844.148315,1337.882690 850.183594,1337.553711 
	C856.835999,1337.191040 860.408875,1339.978394 863.130005,1347.988770 
M842.763367,1352.851074 
	C843.355896,1358.898438 843.517761,1365.039062 844.793762,1370.938599 
	C845.195740,1372.796997 848.519531,1375.084839 850.625610,1375.213013 
	C852.702637,1375.339355 856.110901,1373.477661 856.891052,1371.626709 
	C860.505615,1363.050171 860.434326,1354.096680 856.764038,1345.536987 
	C856.010254,1343.779175 852.863281,1341.989746 850.910889,1342.085205 
	C848.727112,1342.192139 846.193115,1344.044067 844.664490,1345.856079 
	C843.413757,1347.338745 843.415710,1349.878174 842.763367,1352.851074 
z"/>
<path fill="#D4AB79" opacity="1.000000" stroke="none" 
	d="
M933.001709,1352.921997 
	C934.018066,1349.349854 934.631897,1346.014282 936.092468,1343.103882 
	C938.255554,1338.793945 942.310242,1337.339966 946.987366,1337.567383 
	C951.718933,1337.797363 955.438293,1339.826294 957.103943,1344.375122 
	C960.477356,1353.588013 960.564941,1362.951416 957.201477,1372.179199 
	C955.359375,1377.233032 951.348755,1379.721924 945.992615,1379.792236 
	C940.643005,1379.862183 936.221924,1377.178833 934.896851,1371.531250 
	C933.515747,1365.644409 933.558044,1359.423584 933.001709,1352.921997 
M954.633118,1358.512329 
	C953.973145,1354.440308 953.921692,1350.121826 952.411621,1346.394287 
	C951.583557,1344.350098 948.303406,1342.148560 946.112427,1342.131592 
	C943.928528,1342.114502 940.499939,1344.278076 939.743286,1346.286621 
	C936.679993,1354.418213 936.554443,1362.949829 940.056824,1370.992676 
	C940.949707,1373.043213 944.299011,1375.243408 946.457031,1375.181763 
	C948.632202,1375.119629 951.729248,1372.755981 952.632385,1370.637573 
	C954.077209,1367.248657 954.043579,1363.229248 954.633118,1358.512329 
z"/>
<path fill="#D4AB79" opacity="1.000000" stroke="none" 
	d="
M1114.042114,1379.809570 
	C1106.947144,1379.315308 1103.022705,1375.155273 1102.286011,1369.096191 
	C1101.455078,1362.263062 1101.351685,1355.157349 1102.259033,1348.347046 
	C1103.225708,1341.091797 1108.177979,1337.476318 1114.518311,1337.520752 
	C1121.231934,1337.567749 1125.844482,1341.288086 1126.770752,1348.892456 
	C1127.525757,1355.090820 1127.542969,1361.524048 1126.800781,1367.723022 
	C1125.879028,1375.421265 1121.988525,1378.652222 1114.042114,1379.809570 
M1121.192017,1370.383179 
	C1123.571167,1362.699585 1123.601562,1354.997192 1121.226318,1347.322021 
	C1120.211182,1344.041382 1118.193726,1341.843140 1114.431396,1341.786743 
	C1110.406494,1341.726562 1107.659180,1344.145874 1107.400391,1347.560913 
	C1106.855835,1354.749634 1106.768066,1362.070679 1107.595947,1369.209351 
	C1107.862061,1371.503906 1111.347900,1374.607300 1113.807617,1375.097168 
	C1115.834961,1375.500732 1118.522217,1372.591064 1121.192017,1370.383179 
z"/>
<path fill="#D2A978" opacity="1.000000" stroke="none" 
	d="
M1197.687500,1358.374023 
	C1201.273682,1364.450073 1201.134766,1371.026123 1197.576416,1375.431396 
	C1194.396484,1379.368164 1188.728638,1381.104126 1183.586426,1378.880493 
	C1181.045288,1377.781738 1178.367310,1375.648315 1177.065430,1373.265137 
	C1170.953247,1362.077148 1178.743042,1342.776123 1190.766113,1338.514648 
	C1193.036255,1337.710083 1195.408325,1336.765625 1195.477051,1341.103516 
	C1187.973145,1343.484985 1182.839355,1348.374390 1180.757935,1356.978516 
	C1186.801758,1354.364014 1192.423950,1353.386353 1197.687500,1358.374023 
M1195.058105,1364.058716 
	C1192.803223,1359.477051 1189.507324,1357.835327 1185.054443,1359.292236 
	C1181.265747,1360.531982 1179.390381,1363.049805 1179.939331,1367.259644 
	C1180.540039,1371.867188 1183.276489,1375.066406 1187.298584,1375.426270 
	C1192.704224,1375.910034 1195.541992,1372.124634 1195.058105,1364.058716 
z"/>
<path fill="#D2A978" opacity="1.000000" stroke="none" 
	d="
M975.552002,1377.586182 
	C973.669495,1374.539917 971.320679,1371.889038 970.640991,1368.863159 
	C967.914612,1356.725952 975.104126,1342.558472 985.500854,1338.629639 
	C989.191467,1337.235229 989.350281,1337.310303 990.391174,1341.152710 
	C982.812500,1343.577515 977.784485,1348.493286 975.786987,1356.912720 
	C978.035339,1356.154663 979.769226,1355.261475 981.590332,1355.016357 
	C986.268982,1354.386719 990.760864,1355.060791 993.443054,1359.460815 
	C996.354675,1364.237305 996.156006,1369.370605 993.397827,1374.140991 
	C990.806274,1378.623291 986.489197,1380.236084 981.483154,1379.640625 
	C979.560974,1379.411865 977.726990,1378.441528 975.552002,1377.586182 
M987.988342,1360.512085 
	C986.450989,1360.001587 984.940125,1359.168945 983.371521,1359.040039 
	C978.382446,1358.630493 974.987183,1361.456177 974.922607,1365.780640 
	C974.837097,1371.508179 978.317078,1375.592285 983.181702,1375.473389 
	C987.673035,1375.363647 990.704163,1371.809448 990.326843,1366.619873 
	C990.190369,1364.743774 989.189026,1362.930420 987.988342,1360.512085 
z"/>
<path fill="#D6AC79" opacity="1.000000" stroke="none" 
	d="
M1086.404419,1354.319336 
	C1082.516235,1361.074219 1078.793457,1367.472900 1074.582275,1374.711182 
	C1078.279907,1374.711182 1081.829956,1374.472168 1085.317139,1374.835938 
	C1086.602295,1374.969971 1087.739258,1376.526001 1088.943726,1377.433350 
	C1088.645142,1377.896729 1088.346436,1378.360107 1088.047852,1378.823486 
	C1080.610474,1378.823486 1073.173218,1378.823486 1064.631592,1378.823486 
	C1066.023804,1376.984131 1066.958740,1375.795288 1067.844482,1374.570923 
	C1071.929810,1368.923828 1076.145752,1363.362793 1079.999268,1357.561279 
	C1081.334961,1355.550415 1082.037109,1352.993164 1082.546509,1350.583496 
	C1083.850464,1344.413574 1080.232300,1340.822144 1074.080688,1342.032349 
	C1072.798462,1342.284668 1071.626221,1343.113403 1070.343750,1343.339966 
	C1069.426270,1343.501831 1068.409546,1343.101685 1067.437134,1342.952393 
	C1067.823242,1341.898926 1067.896973,1340.439819 1068.648682,1339.860840 
	C1072.218506,1337.111084 1079.837891,1336.848999 1083.409302,1339.110229 
	C1087.221313,1341.524170 1088.484131,1345.941650 1087.094482,1352.041016 
	C1086.947144,1352.688110 1086.745972,1353.322876 1086.404419,1354.319336 
z"/>
<path fill="#D6AC79" opacity="1.000000" stroke="none" 
	d="
M1139.830811,1376.253174 
	C1144.211426,1370.536499 1148.467529,1365.208374 1152.418823,1359.663086 
	C1153.836304,1357.673828 1155.162109,1355.219604 1155.376709,1352.872192 
	C1155.659790,1349.776733 1155.915771,1345.219360 1154.151611,1343.779175 
	C1152.115234,1342.116699 1147.866943,1343.165527 1144.579224,1343.032837 
	C1143.141113,1342.974854 1141.703613,1342.906494 1140.263062,1342.158081 
	C1144.250610,1337.668579 1149.060547,1336.931030 1154.117798,1338.022949 
	C1158.533936,1338.976318 1161.517700,1342.179321 1160.921387,1346.582275 
	C1160.249023,1351.549438 1158.693481,1356.586792 1156.512817,1361.106812 
	C1154.321655,1365.648804 1150.888794,1369.591797 1147.566650,1374.428101 
	C1152.490845,1374.428101 1156.846924,1374.428101 1161.542358,1374.428101 
	C1161.759155,1376.097900 1161.915649,1377.302856 1162.139038,1379.023804 
	C1160.335938,1379.023804 1158.868286,1379.023804 1157.400635,1379.023682 
	C1152.235962,1379.023315 1147.070801,1379.065674 1141.907104,1378.994385 
	C1140.472168,1378.974609 1137.948364,1379.646729 1139.830811,1376.253174 
z"/>
<path fill="#D2A978" opacity="1.000000" stroke="none" 
	d="
M807.660278,1379.030762 
	C806.295166,1377.961670 805.357788,1376.893921 803.690918,1374.994995 
	C807.728027,1374.742798 810.012207,1374.599976 812.606567,1374.437866 
	C812.606567,1364.713867 812.606567,1355.159424 812.606567,1345.553711 
	C809.161987,1344.604248 807.498291,1352.608398 802.315430,1347.550903 
	C807.195923,1343.849731 811.681763,1340.447998 817.385620,1336.122559 
	C817.385620,1349.803345 817.385620,1361.822754 817.385620,1372.928345 
	C819.871765,1376.292725 825.773010,1372.147827 825.453857,1379.032104 
	C819.583130,1379.032104 813.835571,1379.032104 807.660278,1379.030762 
z"/>
<path fill="#D2A978" opacity="1.000000" stroke="none" 
	d="
M896.655029,1373.465698 
	C898.571411,1373.995728 900.308167,1374.565186 901.639282,1375.637939 
	C901.903259,1375.850586 900.910767,1378.402832 899.939392,1379.116089 
	C899.190491,1379.666382 896.593506,1379.259766 896.501160,1378.874756 
	C896.105347,1377.225342 896.332764,1375.426147 896.655029,1373.465698 
z"/>
<path fill="#D2A978" opacity="1.000000" stroke="none" 
	d="
M1033.087891,1374.632812 
	C1032.476685,1376.515747 1031.887817,1378.219116 1030.801636,1379.500977 
	C1030.544556,1379.804443 1028.004883,1378.985718 1027.608154,1378.158813 
	C1027.080444,1377.058838 1027.374512,1374.328857 1027.749512,1374.245117 
	C1029.390259,1373.879272 1031.187866,1374.216919 1033.087891,1374.632812 
z"/>
<path fill="#092C2D" opacity="1.000000" stroke="none" 
	d="
M1119.261841,668.666870 
	C1157.154419,685.278748 1181.392090,713.904846 1193.942627,752.293823 
	C1207.715210,794.420715 1208.260620,837.182983 1195.287231,879.595093 
	C1179.198242,932.192566 1143.604248,964.439453 1090.115356,976.821228 
	C1065.554443,982.506714 1040.536987,981.670227 1015.256714,981.351807 
	C1015.256714,872.513977 1015.256714,763.944214 1015.256714,654.713379 
	C1050.519165,654.124390 1085.756104,653.127625 1119.261841,668.666870 
z"/>
<path fill="#092C2D" opacity="1.000000" stroke="none" 
	d="
M577.874634,857.443542 
	C577.766663,856.758240 578.076904,856.276245 578.387207,855.794189 
	C578.355774,856.411743 578.324280,857.029236 577.874634,857.443542 
z"/>
<path fill="#092C2D" opacity="1.000000" stroke="none" 
	d="
M635.791809,788.716492 
	C636.039551,788.257080 636.583069,788.074341 637.126526,787.891541 
	C637.165527,788.248108 637.204590,788.604675 636.962524,789.252502 
	C636.483521,789.360291 636.285522,789.176758 635.791809,788.716492 
z"/>
<path fill="#092C2D" opacity="1.000000" stroke="none" 
	d="
M1308.457031,900.644287 
	C1308.179443,901.271729 1307.649902,901.585144 1307.120361,901.898560 
	C1307.146118,901.313965 1307.171875,900.729431 1307.445801,899.926636 
	C1307.864502,899.915710 1308.034912,900.122986 1308.457031,900.644287 
z"/>
<path fill="#092C2D" opacity="1.000000" stroke="none" 
	d="
M1272.174194,949.302307 
	C1271.637817,949.717407 1270.772827,949.791199 1269.907715,949.864990 
	C1270.138062,949.469849 1270.368530,949.074646 1270.891479,948.480835 
	C1271.404541,948.508423 1271.625000,948.734741 1272.174194,949.302307 
z"/>
<path fill="#092C2D" opacity="1.000000" stroke="none" 
	d="
M1246.182007,962.275635 
	C1245.974365,962.715149 1245.446777,962.882996 1244.919189,963.050781 
	C1244.853149,962.719360 1244.786987,962.388000 1244.969727,961.760742 
	C1245.432983,961.644531 1245.647583,961.824219 1246.182007,962.275635 
z"/>
<path fill="#0F302F" opacity="1.000000" stroke="none" 
	d="
M1115.441528,1244.004883 
	C1115.441528,1238.524292 1115.441528,1233.542236 1115.441528,1228.676636 
	C1124.734863,1225.556641 1133.988892,1227.711670 1138.957886,1233.960693 
	C1144.829224,1241.344727 1145.501099,1257.076294 1140.318359,1265.816650 
	C1135.849731,1273.352539 1127.720825,1276.030273 1115.441528,1273.673950 
	C1115.441528,1264.042236 1115.441528,1254.272827 1115.441528,1244.004883 
z"/>
<path fill="#113130" opacity="1.000000" stroke="none" 
	d="
M884.355591,1245.273926 
	C879.077148,1249.133911 876.234619,1249.690796 867.468201,1248.620117 
	C867.468201,1242.418335 867.416443,1236.130005 867.535706,1229.844849 
	C867.550049,1229.086060 868.319458,1228.010498 869.027710,1227.651245 
	C872.748718,1225.764404 881.638367,1227.620850 884.497131,1230.731934 
	C887.845886,1234.376221 887.891724,1239.414429 884.355591,1245.273926 
z"/>
<path fill="#113130" opacity="1.000000" stroke="none" 
	d="
M1001.101318,1236.026611 
	C1002.108887,1248.806519 996.135559,1253.209473 979.484802,1251.665894 
	C979.484802,1244.383545 979.437683,1236.991333 979.559509,1229.601807 
	C979.571350,1228.882935 980.481323,1227.837524 981.220276,1227.525269 
	C987.696228,1224.787476 998.031921,1229.076538 1001.101318,1236.026611 
z"/>
<path fill="#113130" opacity="1.000000" stroke="none" 
	d="
M936.748657,1257.951660 
	C932.984253,1257.951660 929.682495,1257.951660 925.595032,1257.951660 
	C928.363098,1249.616699 930.979370,1241.738892 933.716431,1233.497192 
	C936.476318,1241.464233 939.181763,1249.274048 942.077698,1257.633911 
	C940.278015,1257.751343 938.744690,1257.851440 936.748657,1257.951660 
z"/>
<path fill="#0D2F2F" opacity="1.000000" stroke="none" 
	d="
M842.812805,1352.400146 
	C843.415710,1349.878174 843.413757,1347.338745 844.664490,1345.856079 
	C846.193115,1344.044067 848.727112,1342.192139 850.910889,1342.085205 
	C852.863281,1341.989746 856.010254,1343.779175 856.764038,1345.536987 
	C860.434326,1354.096680 860.505615,1363.050171 856.891052,1371.626709 
	C856.110901,1373.477661 852.702637,1375.339355 850.625610,1375.213013 
	C848.519531,1375.084839 845.195740,1372.796997 844.793762,1370.938599 
	C843.517761,1365.039062 843.355896,1358.898438 842.812805,1352.400146 
z"/>
<path fill="#0D2F2F" opacity="1.000000" stroke="none" 
	d="
M954.634033,1358.994385 
	C954.043579,1363.229248 954.077209,1367.248657 952.632385,1370.637573 
	C951.729248,1372.755981 948.632202,1375.119629 946.457031,1375.181763 
	C944.299011,1375.243408 940.949707,1373.043213 940.056824,1370.992676 
	C936.554443,1362.949829 936.679993,1354.418213 939.743286,1346.286621 
	C940.499939,1344.278076 943.928528,1342.114502 946.112427,1342.131592 
	C948.303406,1342.148560 951.583557,1344.350098 952.411621,1346.394287 
	C953.921692,1350.121826 953.973145,1354.440308 954.634033,1358.994385 
z"/>
<path fill="#0D2F2F" opacity="1.000000" stroke="none" 
	d="
M1121.054565,1370.766479 
	C1118.522217,1372.591064 1115.834961,1375.500732 1113.807617,1375.097168 
	C1111.347900,1374.607300 1107.862061,1371.503906 1107.595947,1369.209351 
	C1106.768066,1362.070679 1106.855835,1354.749634 1107.400391,1347.560913 
	C1107.659180,1344.145874 1110.406494,1341.726562 1114.431396,1341.786743 
	C1118.193726,1341.843140 1120.211182,1344.041382 1121.226318,1347.322021 
	C1123.601562,1354.997192 1123.571167,1362.699585 1121.054565,1370.766479 
z"/>
<path fill="#0D2F2F" opacity="1.000000" stroke="none" 
	d="
M1195.126831,1364.475220 
	C1195.541992,1372.124634 1192.704224,1375.910034 1187.298584,1375.426270 
	C1183.276489,1375.066406 1180.540039,1371.867188 1179.939331,1367.259644 
	C1179.390381,1363.049805 1181.265747,1360.531982 1185.054443,1359.292236 
	C1189.507324,1357.835327 1192.803223,1359.477051 1195.126831,1364.475220 
z"/>
<path fill="#0D2F2F" opacity="1.000000" stroke="none" 
	d="
M988.285400,1360.800293 
	C989.189026,1362.930420 990.190369,1364.743774 990.326843,1366.619873 
	C990.704163,1371.809448 987.673035,1375.363647 983.181702,1375.473389 
	C978.317078,1375.592285 974.837097,1371.508179 974.922607,1365.780640 
	C974.987183,1361.456177 978.382446,1358.630493 983.371521,1359.040039 
	C984.940125,1359.168945 986.450989,1360.001587 988.285400,1360.800293 
z"/>
</svg>